<svg id="Capa_1" data-name="Capa 1" xmlns="http://www.w3.org/2000/svg" viewBox="0 0 85.04 14.82"><title>banco-santander</title><path d="M25.42,27.76A3.38,3.38,0,0,0,25,26.22L22.53,22a3.8,3.8,0,0,1-.4-1l-.1.18a3.37,3.37,0,0,0,0,3.39l2,3.39a3.37,3.37,0,0,1,0,3.39l-.11.18a3.64,3.64,0,0,0-.39-1l-1.78-3.1-1.15-2a3.84,3.84,0,0,1-.39-1l-.11.18a3.42,3.42,0,0,0,0,3.39h0l2,3.4a3.42,3.42,0,0,1,0,3.39l-.11.18a3.54,3.54,0,0,0-.39-1l-2.47-4.25a3.76,3.76,0,0,1-.46-1.85c-2.61.67-4.43,2.14-4.43,3.82,0,2.35,3.5,4.24,7.82,4.24s7.82-1.89,7.82-4.24C29.85,29.9,28.06,28.44,25.42,27.76ZM32.81,35a5,5,0,0,1,.28-1.5,6.65,6.65,0,0,0,2.68.58c1.36,0,2.14-.43,2.14-1.32S37.34,31.51,36,30.9l-.75-.29c-1.4-.6-2.32-1.39-2.32-2.92,0-1.68,1.17-2.75,3.53-2.75a8,8,0,0,1,2.68.43,5.47,5.47,0,0,1-.29,1.46,7.61,7.61,0,0,0-2.43-.43c-1.28,0-1.85.5-1.85,1.29s.57,1.21,1.6,1.64l.79.32c1.86.78,2.64,1.64,2.64,3.07,0,1.68-1.28,2.86-3.78,2.86A6.81,6.81,0,0,1,32.81,35Zm14.67-7v7.36H46l-.07-.9a2.26,2.26,0,0,1-2.07,1.07c-1.93,0-3.25-1.42-3.25-3.89S42,27.54,44.7,27.54A9.6,9.6,0,0,1,47.48,28Zm-1.6,5.68V29A6,6,0,0,0,44.7,29c-1.68,0-2.47,1-2.47,2.68s.61,2.57,2,2.57A2.85,2.85,0,0,0,45.88,33.65Zm9.88-3.25v4.93h-1.6V30.68c0-1.17-.39-1.71-2-1.71a8.87,8.87,0,0,0-1.29.11v6.25h-1.6V28a14,14,0,0,1,2.92-.43C54.91,27.58,55.76,28.61,55.76,30.4Zm4.5,3.75a3.11,3.11,0,0,0,1.25-.22,12.67,12.67,0,0,1-.18,1.36,3.55,3.55,0,0,1-1.35.25A2.25,2.25,0,0,1,57.41,33V25.29A5.24,5.24,0,0,1,59,25v2.79h2.57a13.89,13.89,0,0,1-.14,1.39H59v3.61C59,33.75,59.48,34.15,60.26,34.15ZM68.94,28v7.36h-1.5l-.07-.9A2.27,2.27,0,0,1,65.3,35.5c-1.93,0-3.25-1.42-3.25-3.89s1.39-4.07,4.1-4.07A9.9,9.9,0,0,1,68.94,28ZM67.3,33.65V29A6,6,0,0,0,66.12,29c-1.68,0-2.47,1-2.47,2.68s.61,2.57,2,2.57A2.77,2.77,0,0,0,67.3,33.65Zm9.92-3.25v4.93H75.58V30.68c0-1.17-.39-1.71-2-1.71a8.63,8.63,0,0,0-1.28.11v6.25H70.69V28a14.09,14.09,0,0,1,2.93-.43C76.33,27.58,77.22,28.61,77.22,30.4ZM85.4,25V35.33H83.9l-.08-.93a2.23,2.23,0,0,1-2.1,1.1c-1.93,0-3.25-1.42-3.25-3.89s1.39-4.07,4.11-4.07a6.81,6.81,0,0,1,1.21.11V25.22A6.12,6.12,0,0,1,85.4,25Zm-1.61,8.61V29.11A8.08,8.08,0,0,0,82.5,29c-1.6,0-2.35,1-2.35,2.68,0,1.5.61,2.57,2,2.57A2.94,2.94,0,0,0,83.79,33.65Zm9.75-1.47H88.36a2.11,2.11,0,0,0,2.43,1.93,5.82,5.82,0,0,0,2.57-.57c-.07.43-.15,1-.25,1.46a5.72,5.72,0,0,1-2.4.47c-2.71,0-4-1.5-4-4,0-2.18,1-3.93,3.57-3.93a3.07,3.07,0,0,1,3.32,3.36A7.38,7.38,0,0,1,93.54,32.18Zm-5.18-1.35H92c0-1.22-.64-1.93-1.75-1.93S88.47,29.58,88.36,30.83Zm10.85-3.18A7.37,7.37,0,0,1,99.07,29c-.39,0-.75-.07-1.21-.07s-.79,0-1.18.07v6.29H95.07V28a9.28,9.28,0,0,1,2.75-.43C98.28,27.58,98.86,27.58,99.21,27.65Z" transform="translate(-14.17 -20.94)" style="fill:#e42313"/></svg>